# Blender v2.79 (sub 0) OBJ File: 'isometric.blend'
# www.blender.org
mtllib isometric-tree.mtl
o Circle_Circle.001
v 0.000000 0.000000 -0.200000
v -0.076537 0.000000 -0.184776
v -0.141421 0.000000 -0.141421
v -0.184776 0.000000 -0.076537
v -0.200000 0.000000 0.000000
v -0.184776 0.000000 0.076537
v -0.141421 0.000000 0.141421
v -0.076537 0.000000 0.184776
v -0.000000 0.000000 0.200000
v 0.076537 0.000000 0.184776
v 0.141421 0.000000 0.141421
v 0.184776 0.000000 0.076537
v 0.200000 0.000000 -0.000000
v 0.184776 0.000000 -0.076537
v 0.141421 0.000000 -0.141421
v 0.076537 0.000000 -0.184776
v 0.000000 0.897495 -0.200000
v -0.076537 0.897495 -0.184776
v -0.141421 0.897495 -0.141421
v -0.184776 0.897495 -0.076537
v -0.200000 0.897495 0.000000
v -0.184776 0.897495 0.076537
v -0.141421 0.897495 0.141421
v -0.076537 0.897495 0.184776
v -0.000000 0.897495 0.200000
v 0.076537 0.897495 0.184776
v 0.141421 0.897495 0.141421
v 0.184776 0.897495 0.076537
v 0.200000 0.897495 -0.000000
v 0.184776 0.897495 -0.076537
v 0.141421 0.897495 -0.141421
v 0.076537 0.897495 -0.184776
v -0.700000 0.900260 0.700000
v 0.700000 0.900260 0.700000
v -0.700000 0.900260 -0.700000
v 0.700000 0.900260 -0.700000
v 0.000000 5.495465 0.000000
vn 0.0000 -1.0000 0.0000
vn 0.0000 0.1506 0.9886
vn 0.9886 0.1506 0.0000
vn -0.9886 0.1506 0.0000
vn 0.0000 0.1506 -0.9886
vn -0.5556 0.0000 -0.8315
vn 0.8315 0.0000 0.5556
vn -0.8315 0.0000 -0.5556
vn 0.9808 0.0000 0.1951
vn -0.9808 0.0000 -0.1951
vn 0.9808 0.0000 -0.1951
vn -0.9808 0.0000 0.1951
vn 0.8315 0.0000 -0.5556
vn -0.8315 0.0000 0.5556
vn 0.5556 0.0000 -0.8315
vn -0.5556 0.0000 0.8315
vn 0.1951 0.0000 -0.9808
vn 0.1951 0.0000 0.9808
vn -0.1951 0.0000 0.9808
vn -0.1951 0.0000 -0.9808
vn 0.5556 0.0000 0.8315
usemtl Material.001
s off
f 33//1 35//1 36//1 34//1
f 33//2 34//2 37//2
f 34//3 36//3 37//3
f 35//4 33//4 37//4
f 36//5 35//5 37//5
usemtl Material.002
f 11//6 10//6 26//6 27//6
f 4//7 3//7 19//7 20//7
f 12//8 11//8 27//8 28//8
f 5//9 4//9 20//9 21//9
f 13//10 12//10 28//10 29//10
f 6//11 5//11 21//11 22//11
f 14//12 13//12 29//12 30//12
f 7//13 6//13 22//13 23//13
f 15//14 14//14 30//14 31//14
f 8//15 7//15 23//15 24//15
f 16//16 15//16 31//16 32//16
f 9//17 8//17 24//17 25//17
f 2//18 1//18 17//18 18//18
f 1//19 16//19 32//19 17//19
f 10//20 9//20 25//20 26//20
f 3//21 2//21 18//21 19//21
o Plane.001_Plane.002
v -2.000000 0.000000 2.000000
v 2.000000 0.000000 2.000000
v -2.000000 0.000000 -2.000000
v 2.000000 0.000000 -2.000000
vn 0.0000 1.0000 0.0000
usemtl ground
s off
f 38//22 39//22 41//22 40//22
o Plane_Plane.001
v -2.000000 0.000000 2.000000
v 2.000000 0.000000 2.000000
v -2.000000 0.000000 -2.000000
v 2.000000 0.000000 -2.000000
v 0.829785 0.000000 -1.041925
v 0.829785 2.083027 -1.041925
v 0.829785 0.000000 0.958074
v 0.829785 2.083027 0.958074
v -1.170215 0.000000 -1.041925
v -1.170215 2.083027 -1.041925
v -1.170215 0.000000 0.958075
v -1.170215 2.083027 0.958075
v -1.116835 0.000000 0.958075
v 0.776405 0.000000 0.958074
v 0.776405 2.083027 0.958074
v -1.116835 2.083027 0.958075
v 0.776405 0.000000 -1.041925
v -1.116835 0.000000 -1.041925
v -1.116835 2.083027 -1.041925
v 0.776405 2.083027 -1.041925
v -1.116835 2.083027 -0.972476
v -1.116835 3.327916 -0.041925
v -1.116261 2.083027 0.888626
v 0.776978 2.083027 -0.972476
v 0.776979 3.327916 -0.041925
v 0.776405 2.083027 0.888625
v 0.829785 3.396967 -0.049768
v 0.829785 3.396967 -0.034083
v 0.776405 3.396967 -0.034083
v 0.776405 3.396967 -0.049768
v -1.116835 3.393353 -0.049768
v -1.116835 3.393353 -0.034082
v -1.170215 3.393353 -0.034082
v -1.170215 3.393353 -0.049768
v 0.776405 2.411512 0.710035
v 0.829785 2.411512 0.710035
v 0.829785 2.411512 -0.793886
v 0.776405 2.411512 -0.793886
v 0.829785 2.854967 0.375182
v 0.776405 2.854967 -0.459033
v 0.776405 2.854967 0.375182
v 0.829785 2.854967 -0.459033
v 0.829785 0.000000 0.358075
v 0.829785 2.083027 0.358075
v -1.170215 0.000000 0.358075
v -1.170215 2.083027 0.358075
v -1.116835 2.083027 0.358075
v 0.776405 2.083027 0.358075
v 0.776405 3.396967 -0.038788
v 0.829785 3.396967 -0.038788
v -1.116835 3.393353 -0.038788
v -1.170215 3.393353 -0.038788
v 0.829785 2.480296 0.079630
v 0.776405 2.480296 0.079629
v 0.829785 2.786182 0.079630
v 0.776405 2.786182 0.079629
v 0.829785 0.000000 -0.341925
v -1.170215 2.083027 -0.341925
v -1.116835 2.083027 -0.341925
v 0.776405 2.083027 -0.341925
v 0.829785 3.396967 -0.044278
v -1.116835 3.393353 -0.044278
v 0.776405 2.480296 -0.121770
v 0.776405 2.786182 -0.121770
v 0.829785 2.083027 -0.341926
v -1.170215 0.000000 -0.341925
v 0.776405 3.396967 -0.044278
v -1.170215 3.393353 -0.044278
v 0.829785 2.480296 -0.121770
v 0.829785 2.786182 -0.121770
v -0.450076 0.000000 0.958075
v 0.109647 0.000000 0.958075
v 0.109647 2.083027 0.958075
v -0.450076 2.083027 0.958075
v 0.109646 0.000000 -1.041925
v -0.450076 0.000000 -1.041925
v -0.450076 2.083027 -1.041925
v 0.109646 2.083027 -1.041925
v 0.109646 2.083027 0.358075
v -0.450076 2.083027 0.358075
v 0.109646 2.083027 -0.341925
v -0.450076 2.083027 -0.341925
v 0.829785 1.163974 -1.041925
v 0.829785 1.163974 0.958074
v -1.170215 1.163974 0.958075
v -1.170215 1.163974 -1.041925
v -1.116835 1.163974 -1.041925
v 0.776405 1.163974 -1.041925
v 0.776405 1.163974 0.958074
v -1.116835 1.163974 0.958075
v -1.170215 1.163974 0.358075
v 0.829785 1.163974 0.358075
v 0.829785 1.163974 -0.341926
v -1.170215 1.163974 -0.341925
v 0.109647 1.163974 0.958075
v -0.450076 1.163974 0.958075
v -0.450076 1.163974 -1.041925
v 0.109646 1.163974 -1.041925
v -1.116835 0.896650 0.958075
v 0.776405 0.896650 0.958074
v 0.776405 0.896650 -1.041925
v -1.116835 0.896650 -1.041925
v 0.109647 0.896650 0.958075
v 0.088343 0.998592 0.958075
v 0.027677 1.085507 0.958075
v -0.063117 1.143581 0.958075
v -0.170215 1.163974 0.958075
v -0.277313 1.143581 0.958075
v -0.368107 1.085507 0.958075
v -0.428773 0.998592 0.958075
v -0.450076 0.896650 0.958075
v -1.170215 0.896650 -1.041925
v -1.170215 0.896650 0.958075
v 0.829785 0.896650 0.958074
v -1.170215 0.896650 0.358075
v 0.829785 0.896650 0.358075
v 0.829785 0.896650 -0.341926
v -1.170215 0.896650 -0.341925
v -0.450076 0.896650 -1.041925
v 0.109646 0.896650 -1.041925
v 0.829785 0.896650 -1.041925
v 0.039681 2.083027 0.958075
v -0.030284 2.083027 0.958075
v -0.100250 2.083027 0.958075
v -0.170215 2.083027 0.958075
v -0.240180 2.083027 0.958075
v -0.310146 2.083027 0.958075
v -0.380111 2.083027 0.958075
v 0.039681 0.000000 -1.041925
v -0.030284 0.000000 -1.041925
v -0.100250 0.000000 -1.041925
v -0.170215 0.000000 -1.041925
v -0.240180 0.000000 -1.041925
v -0.310146 0.000000 -1.041925
v -0.380111 0.000000 -1.041925
v -0.380111 2.083027 -1.041925
v -0.310146 2.083027 -1.041925
v -0.240180 2.083027 -1.041925
v -0.170215 2.083027 -1.041925
v -0.100250 2.083027 -1.041925
v -0.030284 2.083027 -1.041925
v 0.039681 2.083027 -1.041925
v 0.039681 2.083027 0.358075
v -0.030284 2.083027 0.358075
v -0.100250 2.083027 0.358075
v -0.170215 2.083027 0.358075
v -0.240180 2.083027 0.358075
v -0.310146 2.083027 0.358075
v -0.380111 2.083027 0.358075
v 0.039681 2.083027 -0.341925
v -0.030284 2.083027 -0.341925
v -0.100250 2.083027 -0.341925
v -0.170215 2.083027 -0.341925
v -0.240180 2.083027 -0.341925
v -0.310146 2.083027 -0.341925
v -0.380111 2.083027 -0.341925
v -0.380111 1.163974 -1.041925
v -0.310146 1.163974 -1.041925
v -0.240180 1.163974 -1.041925
v -0.170215 1.163974 -1.041925
v -0.100250 1.163974 -1.041925
v -0.030284 1.163974 -1.041925
v 0.039681 1.163974 -1.041925
v 0.039681 1.163974 0.958075
v -0.030284 1.163974 0.958075
v -0.100250 1.163974 0.958075
v -0.240180 1.163974 0.958075
v -0.310146 1.163974 0.958075
v -0.380111 1.163974 0.958075
v -0.450076 0.896650 0.845910
v -0.428773 0.998592 0.845910
v -0.368107 1.085507 0.845910
v -0.277313 1.143581 0.845910
v -0.170215 1.163974 0.845910
v -0.063117 1.143581 0.845910
v 0.027677 1.085507 0.845910
v 0.088343 0.998592 0.845910
v 0.109647 0.896650 0.845910
v 0.109647 0.000000 0.845910
v -0.450076 0.000000 0.845910
v -0.380111 0.896650 -1.041925
v -0.310146 0.896650 -1.041925
v -0.240180 0.896650 -1.041925
v -0.170215 0.896650 -1.041925
v -0.100250 0.896650 -1.041925
v -0.030284 0.896650 -1.041925
v 0.039681 0.896650 -1.041925
vn 1.0000 0.0000 0.0000
vn 0.0000 0.0000 1.0000
vn -1.0000 0.0000 0.0000
vn -0.0000 0.0000 -1.0000
vn 0.0000 1.0000 0.0000
vn -0.0000 0.6037 -0.7972
vn 0.0000 0.6026 -0.7980
vn -0.0000 0.6026 0.7980
vn 0.0000 0.6037 0.7972
vn 0.0000 -1.0000 0.0000
vn 0.9789 -0.2046 -0.0000
vn -0.9789 -0.2046 0.0000
vn -0.1871 -0.9823 0.0000
vn 0.8200 -0.5724 0.0000
vn -0.5388 -0.8424 0.0000
vn 0.5388 -0.8424 0.0000
vn -0.8200 -0.5724 0.0000
vn 0.1871 -0.9823 0.0000
vn -0.0000 0.5987 -0.8010
vn 0.0000 0.5987 0.8010
usemtl wall
s off
f 133//23 85//23 49//23 125//23
f 131//24 57//24 53//24 126//24
f 135//25 99//25 51//25 127//25
f 129//26 61//26 47//26 124//26
f 97//25 82//25 70//25 90//25
f 122//27 101//27 61//27 119//27
f 127//26 51//26 60//26 128//26
f 139//26 119//26 61//26 129//26
f 125//24 49//24 56//24 130//24
f 137//24 115//24 57//24 131//24
f 111//23 83//23 68//23 102//23
f 60//28 51//28 75//28 72//28
f 87//25 53//25 74//25 93//25
f 100//23 60//23 72//23 103//23
f 83//29 81//29 71//29 68//29
f 108//27 102//27 68//27 71//27
f 82//30 80//30 69//30 70//30
f 92//27 93//27 74//27 73//27
f 53//31 57//31 73//31 74//31
f 56//30 49//30 77//30 76//30
f 47//29 61//29 79//29 78//29
f 106//23 47//23 78//23 110//23
f 89//25 56//25 76//25 95//25
f 76//30 77//30 80//30 82//30
f 78//29 79//29 81//29 83//29
f 110//23 78//23 83//23 111//23
f 95//25 76//25 82//25 97//25
f 105//24 104//24 110//24 111//24
f 77//23 94//23 96//23 80//23
f 101//25 89//25 95//25 104//25
f 49//23 85//23 94//23 77//23
f 103//27 109//27 93//27 92//27
f 70//27 69//27 91//27 90//27
f 57//23 88//23 92//23 73//23
f 99//25 87//25 93//25 109//25
f 80//23 96//23 91//23 69//23
f 114//27 56//27 89//27 120//27
f 105//25 97//25 90//25 108//25
f 126//25 53//25 87//25 132//25
f 134//23 106//23 85//23 133//23
f 124//23 47//23 106//23 134//23
f 81//25 105//25 108//25 71//25
f 51//25 99//25 109//25 75//25
f 72//27 75//27 109//27 103//27
f 61//25 101//25 104//25 79//25
f 79//25 104//25 105//25 81//25
f 110//27 104//27 95//27 94//27
f 85//23 106//23 110//23 94//23
f 90//27 91//27 102//27 108//27
f 88//23 100//23 103//23 92//23
f 96//23 111//23 102//23 91//23
f 120//27 89//27 101//27 122//27
f 132//25 87//25 99//25 135//25
f 97//26 96//26 94//26 95//26
f 111//32 96//32 97//32 105//32
f 88//27 121//27 123//27 100//27
f 184//27 120//27 122//27 191//27
f 57//27 115//27 121//27 88//27
f 163//27 114//27 120//27 184//27
f 130//24 56//24 114//24 136//24
f 210//24 169//24 115//24 137//24
f 128//26 60//26 118//26 138//26
f 204//26 183//26 119//26 139//26
f 100//27 123//27 118//27 60//27
f 191//27 122//27 119//27 183//27
f 228//26 204//26 139//26 161//26
f 143//26 128//26 138//26 160//26
f 151//33 152//33 211//33 212//33
f 141//24 130//24 136//24 144//24
f 156//25 132//25 135//25 159//25
f 162//23 124//23 134//23 158//23
f 158//23 134//23 133//23 157//23
f 154//25 126//25 132//25 156//25
f 152//24 137//24 131//24 140//24
f 155//24 125//24 130//24 141//24
f 161//26 139//26 129//26 142//26
f 153//26 127//26 128//26 143//26
f 142//26 129//26 124//26 162//26
f 159//25 135//25 127//25 153//25
f 140//24 131//24 126//24 154//24
f 157//23 133//23 125//23 155//23
f 144//34 145//34 218//34 219//34
f 147//35 148//35 215//35 216//35
f 84//23 157//23 155//23 48//23
f 54//24 140//24 154//24 52//24
f 107//25 159//25 153//25 50//25
f 58//26 142//26 162//26 46//26
f 50//26 153//26 143//26 59//26
f 116//26 161//26 142//26 58//26
f 48//24 155//24 141//24 55//24
f 112//24 152//24 140//24 54//24
f 52//25 154//25 156//25 86//25
f 98//23 158//23 157//23 84//23
f 46//23 162//23 158//23 98//23
f 86//25 156//25 159//25 107//25
f 55//24 141//24 144//24 113//24
f 59//26 143//26 160//26 117//26
f 170//26 228//26 161//26 116//26
f 117//26 160//26 222//26 176//26
f 176//26 222//26 223//26 175//26
f 175//26 223//26 224//26 174//26
f 174//26 224//26 225//26 173//26
f 173//26 225//26 226//26 172//26
f 172//26 226//26 227//26 171//26
f 171//26 227//26 228//26 170//26
f 150//36 151//36 212//36 213//36
f 113//25 144//25 219//25 220//25
f 146//37 147//37 216//37 217//37
f 152//23 112//23 221//23 211//23
f 149//38 150//38 213//38 214//38
f 145//39 146//39 217//39 218//39
f 148//40 149//40 214//40 215//40
f 160//26 138//26 198//26 222//26
f 222//26 198//26 199//26 223//26
f 223//26 199//26 200//26 224//26
f 224//26 200//26 201//26 225//26
f 225//26 201//26 202//26 226//26
f 226//26 202//26 203//26 227//26
f 227//26 203//26 204//26 228//26
f 123//27 197//27 177//27 118//27
f 197//27 196//27 178//27 177//27
f 196//27 195//27 179//27 178//27
f 195//27 194//27 180//27 179//27
f 194//27 193//27 181//27 180//27
f 193//27 192//27 182//27 181//27
f 192//27 191//27 183//27 182//27
f 138//26 118//26 177//26 198//26
f 198//26 177//26 178//26 199//26
f 199//26 178//26 179//26 200//26
f 200//26 179//26 180//26 201//26
f 201//26 180//26 181//26 202//26
f 202//26 181//26 182//26 203//26
f 203//26 182//26 183//26 204//26
f 136//24 114//24 163//24 205//24
f 205//24 163//24 164//24 206//24
f 206//24 164//24 165//24 207//24
f 207//24 165//24 166//24 148//24
f 148//24 166//24 167//24 208//24
f 208//24 167//24 168//24 209//24
f 209//24 168//24 169//24 210//24
f 115//27 169//27 190//27 121//27
f 169//27 168//27 189//27 190//27
f 168//27 167//27 188//27 189//27
f 167//27 166//27 187//27 188//27
f 166//27 165//27 186//27 187//27
f 165//27 164//27 185//27 186//27
f 164//27 163//27 184//27 185//27
f 121//27 190//27 197//27 123//27
f 190//27 189//27 196//27 197//27
f 189//27 188//27 195//27 196//27
f 188//27 187//27 194//27 195//27
f 187//27 186//27 193//27 194//27
f 186//27 185//27 192//27 193//27
f 185//27 184//27 191//27 192//27
f 151//24 210//24 137//24 152//24
f 151//24 150//24 209//24 210//24
f 209//24 150//24 149//24 208//24
f 208//24 149//24 148//24
f 207//24 148//24 147//24
f 207//24 147//24 146//24 206//24
f 206//24 146//24 145//24 205//24
f 205//24 145//24 144//24 136//24
usemtl roof
f 62//41 63//41 66//41 65//41
f 63//42 64//42 67//42 66//42
usemtl ground
f 42//27 43//27 45//27 44//27
